<svg xmlns="http://www.w3.org/2000/svg" width="61" height="44" fill="none"><path fill="#FFC6E9" fill-rule="evenodd" d="M11.62.594a3.05 3.05 0 0 0-4.032 1.532L.991 16.775a3.05 3.05 0 0 0 1.525 4.032l4.545 2.046a3.05 3.05 0 0 0 4.035-1.525l6.597-14.652a3.05 3.05 0 0 0-1.525-4.032zm-5.407 18.08a2.076 2.076 0 0 0 2.797-2.629 2.078 2.078 0 1 0-2.797 2.63m52.283 2.532a3.05 3.05 0 0 0 1.769-3.934L54.577 2.254A3.05 3.05 0 0 0 50.642.482l-4.657 1.766a3.05 3.05 0 0 0-1.77 3.934l5.692 15.021a3.05 3.05 0 0 0 3.932 1.772zM49.538 4.6a2.078 2.078 0 1 0 1.474 3.886 2.078 2.078 0 0 0-1.474-3.886" clip-rule="evenodd"/><path fill="#FFC6E9" fill-rule="evenodd" d="M45.9 5.526h.024a1.526 1.526 0 1 0-.265-3.04h-.025l-.079.009-.296.03-1.077.104c-.905.091-2.159.235-3.544.418-2.73.36-6.112.909-8.326 1.647-1.074.357-2.208 1.049-3.294 1.842-1.101.805-2.242 1.784-3.334 2.8a85 85 0 0 0-5.548 5.746c-1.278 1.446-1.573 3.752-.073 5.386.976 1.056 2.501 2.392 4.478 2.99 2.064.619 4.443.378 6.874-1.428l3.047-1.967.055-.034c.436.265 1.043.723 1.77 1.33a61 61 0 0 1 2.454 2.202q1.366 1.288 2.684 2.623l.168.174.043.043.015.015.18.183.229.119c1.229.61 2.58.39 3.63.036 1.091-.366 2.177-.988 3.101-1.6a27.5 27.5 0 0 0 3.279-2.59l.055-.05.015-.014.003-.003s-.268-.946-1.318-2.05L50 21.484 49.3 23.5l-7.649 2.916 1.55-1.391-.818-2.187a103 103 0 0 0-1.55-1.494 60 60 0 0 0-2.592-2.318c-.833-.702-1.699-1.367-2.422-1.763-1.201-.659-2.379-.171-3.013.24l-3.135 2.026-.043.03c-1.693 1.27-3.084 1.318-4.21.98-1.22-.367-2.302-1.257-3.11-2.136-.253-.274-.326-.802.113-1.299a82 82 0 0 1 5.34-5.536c1.04-.966 2.084-1.86 3.056-2.57.995-.727 1.83-1.2 2.462-1.41 1.903-.634 5.017-1.156 7.759-1.519q2.25-.296 4.508-.51l.284-.027z" clip-rule="evenodd"/><path fill="#FFC6E9" d="M43.588 24.04q-.598-.606-1.205-1.202l.817 2.187-1.55 1.394 7.65-2.92.699-2.012.826-1.037-.778-.165-.009.006-.042.04-.165.152a24.4 24.4 0 0 1-2.73 2.132c-.823.55-1.656 1.007-2.388 1.25-.567.193-.921.208-1.125.175"/><path fill="#FFC6E9" fill-rule="evenodd" d="m15.894 8.457-.601-1.403-.6-1.403.121-.048.345-.147q2.536-1.077 5.093-2.104 2.077-.838 4.185-1.595c.619-.22 1.195-.41 1.677-.546.415-.122.946-.257 1.379-.257.397 0 .814.092 1.159.183.372.101.78.235 1.196.388.835.305 1.778.701 2.65 1.086q1.526.682 3.026 1.42l.2.098.056.028.018.009a1.526 1.526 0 0 1-1.363 2.73l-.016-.01-.048-.024-.19-.091a88 88 0 0 0-2.924-1.373 40 40 0 0 0-2.45-1.006q-.465-.172-.942-.305a3 3 0 0 0-.363-.08l-.027.006c-.061.01-.223.043-.525.129q-.757.224-1.5.49c-1.184.419-2.639.983-4.063 1.553a265 265 0 0 0-5.036 2.077l-.338.143zm-2.004-.802a1.525 1.525 0 0 1 .802-2l.601 1.402.6 1.4a1.525 1.525 0 0 1-2.003-.802M8.086 19.733a1.526 1.526 0 0 1 2.156-.06l-1.049 1.106-1.046 1.11a1.524 1.524 0 0 1-.061-2.156m13.938 10.33 8.427 3.16a4.58 4.58 0 0 0 4.84-1.049l6.375-6.374a1.526 1.526 0 0 1 2.157 2.159l-6.375 6.375a7.63 7.63 0 0 1-8.067 1.744l-8.601-3.224-.07-.033a9 9 0 0 1-1.324-.89 46 46 0 0 1-1.699-1.389q-2.1-1.796-4.142-3.657a389 389 0 0 1-4.95-4.575L8.263 22l-.116-.11 1.046-1.11 1.05-1.108.112.107.326.308a402 402 0 0 0 4.91 4.538 177 177 0 0 0 4.066 3.593c.61.516 1.15.955 1.587 1.294.402.308.655.478.78.549m-10.33 6.517a1.525 1.525 0 0 1 2.144-.192l2.925 2.44c.656.547 1.451.9 2.297 1.019l3.77.53a1.525 1.525 0 1 1-.421 3.02l-3.773-.528a7.63 7.63 0 0 1-3.828-1.698l-2.925-2.44a1.526 1.526 0 0 1-.192-2.15" clip-rule="evenodd"/></svg>