<svg xmlns="http://www.w3.org/2000/svg" width="63" height="57" fill="none"><path fill="#FFC6E9" d="M39.17 1.163c-2.347.62-5.44 1.675-6.827 2.358-2.453 1.179-2.56 1.179-8.425-.869C13.999-.822 6.213.047 1.628 5.072c-2.24 2.481-2.134 9.616.106 15.324C6.747 32.99 15.28 41.738 33.517 53.216L39.596 57l2.666-1.985c3.093-2.482 11.412-13.153 15.038-19.357 9.279-16.13 7.04-31.02-5.333-34.495-5.439-1.55-7.359-1.55-12.798 0m11.944 3.413c2.453.992 5.013 5.025 6.08 9.492.96 3.66-.96 12.036-4.16 18.364-2.986 5.894-13.118 19.605-14.505 19.605-2.346 0-15.464-10.795-20.69-17.062C6.427 21.513 3.014 6.065 11.119 4.513c3.2-.558 8.533.249 11.946 1.862l3.092 1.489-1.92 4.467c-3.092 7.196-.32 14.207 6.187 16.006 2.56.745 3.413.683 5.652-.186 1.493-.558 3.2-1.737 3.733-2.668 1.92-2.73.533-9.926-2.56-13.959-1.493-1.985-2.56-3.908-2.24-4.343.96-1.427 7.36-3.536 10.56-3.536 1.812 0 4.265.434 5.545.93M33.41 15.246c1.6 2.854 1.813 8.004.213 8.934-2.773 1.614-5.972-5.521-4.16-9.678.96-2.233 2.347-1.923 3.947.744"/></svg>