<svg width="66" height="65" viewBox="0 0 66 65" fill="none" xmlns="http://www.w3.org/2000/svg">
<path d="M35.4582 18.9583C35.4582 18.24 35.1728 17.5512 34.6649 17.0433C34.157 16.5353 33.4681 16.25 32.7498 16.25C32.0315 16.25 31.3427 16.5353 30.8348 17.0433C30.3268 17.5512 30.0415 18.24 30.0415 18.9583V32.5C30.0415 32.9205 30.1394 33.3351 30.3274 33.7112C30.5155 34.0873 30.7885 34.4144 31.1248 34.6667L41.9582 42.7917C42.5328 43.2226 43.2551 43.4077 43.9662 43.3061C44.6773 43.2045 45.3189 42.8246 45.7498 42.25C46.1808 41.6754 46.3659 40.9531 46.2643 40.242C46.1627 39.5309 45.7828 38.8893 45.2082 38.4583L35.4582 31.1458V18.9583Z" fill="#FFC6E9"/>
<path fill-rule="evenodd" clip-rule="evenodd" d="M32.7502 2.70825C16.297 2.70825 2.9585 16.0468 2.9585 32.4999C2.9585 48.953 16.297 62.2916 32.7502 62.2916C49.2033 62.2916 62.5418 48.953 62.5418 32.4999C62.5418 16.0468 49.2033 2.70825 32.7502 2.70825ZM8.37516 32.4999C8.37516 29.2989 9.00564 26.1293 10.2306 23.172C11.4556 20.2147 13.251 17.5276 15.5144 15.2642C17.7779 13.0008 20.4649 11.2053 23.4223 9.98035C26.3796 8.7554 29.5492 8.12492 32.7502 8.12492C35.9511 8.12492 39.1208 8.7554 42.0781 9.98035C45.0354 11.2053 47.7225 13.0008 49.9859 15.2642C52.2493 17.5276 54.0448 20.2147 55.2697 23.172C56.4947 26.1293 57.1252 29.2989 57.1252 32.4999C57.1252 38.9646 54.5571 45.1644 49.9859 49.7356C45.4147 54.3068 39.2148 56.8749 32.7502 56.8749C26.2855 56.8749 20.0856 54.3068 15.5144 49.7356C10.9432 45.1644 8.37516 38.9646 8.37516 32.4999Z" fill="#FFC6E9"/>
</svg>
