<svg xmlns="http://www.w3.org/2000/svg" width="46" height="53" fill="none"><path fill="#FFC6E9" d="M.25 30.5A22.5 22.5 0 0 0 22.75 53c0-12.5-10.075-22.5-22.5-22.5m22.5-18.75a6.25 6.25 0 1 1 0 12.5 6.25 6.25 0 0 1 0-12.5m-16 11.875a6.25 6.25 0 0 0 6.25 6.25c1.325 0 2.55-.425 3.5-1.1v.475a6.25 6.25 0 0 0 12.5 0v-.475c.95.675 2.175 1.1 3.5 1.1a6.25 6.25 0 0 0 6.25-6.25c0-2.5-1.475-4.625-3.575-5.625 2.1-1 3.575-3.15 3.575-5.625a6.25 6.25 0 0 0-6.25-6.25c-1.325 0-2.55.4-3.5 1.1V6.75a6.25 6.25 0 0 0-12.5 0v.475c-.95-.7-2.175-1.1-3.5-1.1a6.25 6.25 0 0 0-6.25 6.25C6.75 14.85 8.225 17 10.325 18c-2.1 1-3.575 3.125-3.575 5.625M22.75 53a22.5 22.5 0 0 0 22.5-22.5c-12.5 0-22.5 10-22.5 22.5"/></svg>