<svg width="13" height="14" viewBox="0 0 13 14" fill="none" xmlns="http://www.w3.org/2000/svg">
<path fill-rule="evenodd" clip-rule="evenodd" d="M8.29983 4.16154C12.0608 0.223078 15.731 6.04873 10.1123 6.99231C15.731 7.97694 12.0154 13.7616 8.29983 9.82305C10.2029 14.7461 2.81704 14.7051 4.72017 9.82305C0.95924 13.7616 -2.71105 7.97694 2.90767 6.99231C-2.75636 6.04873 0.95924 0.264102 4.72017 4.16154C2.77173 -0.720512 10.2029 -0.720512 8.29983 4.16154ZM6.48731 4.68644C7.9717 4.68644 8.29983 6.03891 8.29983 6.44915C8.29983 6.8594 8.29983 8.65254 6.48731 8.65254C4.67479 8.65254 4.53774 7.77119 4.53774 6.44915C4.53774 4.93282 6.03421 4.68644 6.48731 4.68644Z" fill="#191919"/>
</svg>
