<svg xmlns="http://www.w3.org/2000/svg" width="28" height="27" fill="none"><path fill="#fff" d="M11.982 11.184h3.317v5.278c-.452.226-1.055.302-1.507.302-1.206 0-1.81-.603-1.81-1.961zm15.153 5.418c-1.713 7.255-8.983 11.747-16.237 10.033C3.643 24.923-.849 17.652.864 10.398 2.578 3.143 9.848-1.349 17.102.364c7.255 1.714 11.747 8.984 10.033 16.238m-7.01-6.624a1 1 0 0 0-.98-.98h-1.81l-4.146-4.75c-.377-.452-.98-.603-1.583-.452l-1.433.45c-.226.076-.302.378-.151.528l4.524 4.298H7.684c-.226 0-.377.15-.377.377v.754c0 .527.453.98.98.98h1.055v3.619c0 2.714 1.433 4.297 3.846 4.297.753 0 1.356-.075 2.111-.377v2.413a1.19 1.19 0 0 0 1.206 1.206h1.056a.484.484 0 0 0 .452-.452V11.11h1.735c.226 0 .376-.152.376-.378z"/></svg>